<svg id="Layer_1" data-name="Layer 1" xmlns="http://www.w3.org/2000/svg" viewBox="0 0 605.98 287.61"><defs><style>.cls-1{fill-rule:evenodd;fill:#41a5f0;}</style></defs><title>newsy-logo</title><path class="cls-1" d="M483.8,164.83a16.08,16.08,0,0,0,6.32-.91,14.39,14.39,0,0,0,4.1-2.54,9.07,9.07,0,0,0,2.22-3,6.78,6.78,0,0,0,.67-2.43,15.51,15.51,0,0,0-.56-3.55c-.37-1.47-.78-3-1.22-4.65l-31.49-114h41l12.19,81.84h.45L529,33.77H569L536.8,157.94a84.62,84.62,0,0,1-6.1,17.18,33.81,33.81,0,0,1-8.2,10.75,27.31,27.31,0,0,1-11,5.54A59,59,0,0,1,497.33,193q-6.43,0-11.87-.23c-3.62-.14-7.13.31-10.53,0V164.83ZM428.68,0H606V223.3h-136v64.31L429.89,223.3V163.79a63.28,63.28,0,0,0,13.36-3.24v48.31H592.62V14.53H443.25V30.4a82.66,82.66,0,0,0-14.57-3V0ZM406.75,124.74a12.45,12.45,0,0,0,2.22,5.1c1.92,2.81,4.73,3.65,8.43,3.65,3.1,0,5.8-.33,8.09-2.1a9,9,0,0,0,3.44-7.53,9.28,9.28,0,0,0-4.32-8.2,47.36,47.36,0,0,0-10.76-5.1q-6.44-2.22-13.86-4.65a58.44,58.44,0,0,1-13.86-6.65,35.58,35.58,0,0,1-10.76-11.19c-2.88-4.66-3.77-10.75-3.77-18.29,0-5.31.41-10.22,2.33-14.73a32.37,32.37,0,0,1,8.76-11.86,41.86,41.86,0,0,1,14.86-8c6-1.92,13-2.44,21.18-2.44q45,0,45,37.62H429.15c0-5.17-.92-9.06-2.77-10.91S421.91,57,418.51,57c-3,0-5.4.48-7.32,2.11A8.47,8.47,0,0,0,408.3,66a8.31,8.31,0,0,0,4.33,7.64,50.51,50.51,0,0,0,10.76,4.54q6.42,2,13.86,4.22a54.47,54.47,0,0,1,13.85,6.31,34.38,34.38,0,0,1,10.76,11.08q4.32,7,4.32,18.51a38.52,38.52,0,0,1-3.32,16.17,36.82,36.82,0,0,1-9.43,12.64,39.72,39.72,0,0,1-15.08,8,71.15,71.15,0,0,1-20.29,2.66q-25.06,0-36-10c-7.32-6.65-10.43-16.92-10.43-30.07h35.22c0,2.36-.51,5-.07,7ZM244.82,35.19l10,87.17h.44L267,35.19h42.58l11.75,87.17h.44l10-87.17h38.59l-24.4,121.36H300.7L288.51,71.17h-.45l-12.19,85.38H230.63L206.24,35.19Zm-97.88,83.4c0,6.5,1.21,10.82,3.43,13a10.52,10.52,0,0,0,7.54,3.22,9.55,9.55,0,0,0,8.31-4.32c2-2.88,2.58-8.25,2.58-16.38h36.34c-.3,14.78-4.07,25.76-11.31,33.22s-19.15,10.47-35.7,10.47c-9.61,0-17.67-.35-24.18-2.49a32.91,32.91,0,0,1-15.74-10.64q-6-7.42-8.54-19.39a141.57,141.57,0,0,1-2.55-29q0-17.29,2.89-29.25t9.09-19.51a35.59,35.59,0,0,1,15.85-11c6.43-2.29,14.16-2.5,23.18-2.5,8,0,15,0,21,2a33.8,33.8,0,0,1,15.08,9.64q6.1,6.76,9.09,17.73t3,27.37l.19,12.48H147l-.1,15.44Zm19.72-56.73q-2.32-4.44-8.75-4.43-6.22,0-8.54,4.43t-2.33,14v5.32h22V75.82q0-9.52-2.33-14ZM38.59,35.19V50.78H39C44.2,39,53.89,34,68.08,34a50.57,50.57,0,0,1,12.31,1.21c3.77,1,7.06,2,9.87,4.51a25.8,25.8,0,0,1,6.65,10q2.43,6.21,2.44,16v90.92H59.5V76.93c0-5,.27-8.65-1.21-10.86s-5.07-3.33-8.62-3.33-6.06,1.11-7.54,3.33-2.21,5.84-2.21,10.86v79.62H0V35.19Z"/></svg>