<svg width="517" height="368" viewBox="0 0 517 368" fill="none" xmlns="http://www.w3.org/2000/svg">
<g clip-path="url(#clip0)">
<path d="M516.562 168.624C517.906 186.015 505.671 201.455 489.244 203.103C476.668 204.364 465.291 197.172 460.036 185.939L445.128 187.253L433.873 192.683C431.298 193.921 429.567 196.382 429.172 199.207C428.108 206.824 426.179 214.161 423.499 221.132C422.587 223.494 422.747 226.13 423.985 228.332L427.995 235.501L439.143 242.982C445.021 240.734 451.864 241.273 457.492 245.047C467.03 251.45 469.316 264.626 462.223 273.899C456.117 281.889 444.763 284.083 436.121 278.949C430.615 275.684 427.288 270.261 426.476 264.467L414.119 256.181L406.342 255.232C403.669 254.905 401.011 255.824 399.067 257.685C392.505 263.935 385.093 269.304 377.035 273.603C374.324 275.046 372.585 277.818 372.395 280.878L371.408 296.63L376.298 316.034C384.622 318.358 391.503 324.957 393.766 333.934C397.183 347.505 388.754 361.274 375.007 364.335C362.606 367.099 349.885 359.869 345.943 347.786C342.875 338.354 345.693 328.603 352.178 322.231L347.265 302.713L339.678 290.516C337.642 287.243 334.043 285.306 330.185 285.314C330.162 285.314 330.147 285.314 330.124 285.314C323.479 285.314 316.978 284.653 310.689 283.415C306.945 282.671 303.08 283.856 300.452 286.628L290.427 297.207L279.202 320.492C281.83 325.831 282.066 332.278 279.286 338.058C274.289 348.417 261.545 352.533 251.361 346.807C242.642 341.893 238.868 331.048 242.665 321.783C245.255 315.464 250.624 311.241 256.7 309.829L267.993 286.392L270.21 270.664C270.613 267.763 269.504 264.839 267.226 263.001C258.241 255.71 250.541 246.908 244.518 236.974C243.022 234.506 240.334 233.01 237.448 232.987L221.742 232.835L204.548 238.243C203.341 248.936 196.019 258.437 185.099 261.869C170.426 266.487 154.796 258.421 150.035 243.84C145.273 229.266 153.315 213.325 167.874 208.51C178.066 205.138 188.774 207.941 196.019 214.829L214.269 209.087L227.598 199.587C229.58 198.182 230.635 195.827 230.438 193.412C230.218 190.731 230.104 188.028 230.104 185.294C230.104 170.439 233.369 156.336 239.202 143.653C240.053 141.792 240.03 139.651 239.134 137.813L235.184 129.74L224.469 121.652C218.469 123.573 211.672 122.654 206.264 118.576C197.09 111.65 195.541 98.3667 203.136 89.5039C209.674 81.8714 221.135 80.3069 229.481 85.9116C234.797 89.4811 237.82 95.0707 238.306 100.903L250.184 109.865L262.153 111.999C270.864 103.911 281.017 97.3566 292.174 92.7619L294.984 75.6894L291.437 58.0549C280.942 55.3512 272.42 47.3086 270.127 36.5852C266.892 21.4341 277.304 6.67788 293.389 3.63247C309.467 0.587062 325.127 10.3916 328.362 25.5427C330.784 36.8813 325.567 47.9921 316.043 54.1437L319.393 70.7757L327.618 83.8991C328.157 84.7573 329.098 85.2737 330.109 85.2737H330.124C348.958 85.2737 366.593 90.5139 381.653 99.6122C382.48 100.106 383.498 100.174 384.371 99.7641L397.252 93.7948L412.289 77.5273C411.385 71.6947 413.048 65.5127 417.37 60.8421C425.177 52.4046 438.543 52.1919 446.609 60.6294C453.679 68.0341 453.953 79.8436 447.239 87.5749C442.895 92.5797 436.66 94.8884 430.569 94.4327L415.532 110.7L410.649 123.839C410.307 124.75 410.459 125.768 411.028 126.558C416.96 134.699 421.691 143.767 424.957 153.503C425.86 156.176 427.987 158.257 430.706 159.024L442.933 162.449L458.821 161.044C462.717 149.812 472.445 141.314 484.392 140.114C500.819 138.466 515.225 151.232 516.562 168.624V168.624Z" fill="#55A8EB" fill-opacity="0.6"/>
<path d="M330.124 259.356C371.027 259.356 404.186 226.197 404.186 185.294C404.186 144.39 371.027 111.232 330.124 111.232C289.22 111.232 256.062 144.39 256.062 185.294C256.062 226.197 289.22 259.356 330.124 259.356Z" fill="#8AC0F5"/>
<path d="M278.636 185.294C278.636 148.227 305.864 117.522 341.411 112.086C337.73 111.523 333.961 111.232 330.124 111.232C289.22 111.232 256.062 144.39 256.062 185.294C256.062 226.198 289.22 259.356 330.124 259.356C333.961 259.356 337.73 259.064 341.411 258.501C305.865 253.065 278.636 222.36 278.636 185.294Z" fill="#72B2F0" fill-opacity="0.6"/>
<path d="M205.51 50.6495C217.158 50.6495 226.601 41.2068 226.601 29.5587C226.601 17.9106 217.158 8.4679 205.51 8.4679C193.862 8.4679 184.42 17.9106 184.42 29.5587C184.42 41.2068 193.862 50.6495 205.51 50.6495Z" fill="#55A8EB" fill-opacity="0.6"/>
<path d="M199.745 321.499C207.439 321.499 213.676 315.262 213.676 307.568C213.676 299.874 207.439 293.637 199.745 293.637C192.052 293.637 185.815 299.874 185.815 307.568C185.815 315.262 192.052 321.499 199.745 321.499Z" fill="#55A8EB" fill-opacity="0.6"/>
<path d="M455.521 350.971C466.853 350.971 476.04 341.784 476.04 330.452C476.04 319.12 466.853 309.933 455.521 309.933C444.189 309.933 435.002 319.12 435.002 330.452C435.002 341.784 444.189 350.971 455.521 350.971Z" fill="#55A8EB" fill-opacity="0.6"/>
<path d="M307.39 183.999C317.955 183.999 326.52 175.434 326.52 164.869C326.52 154.304 317.955 145.739 307.39 145.739C296.825 145.739 288.26 154.304 288.26 164.869C288.26 175.434 296.825 183.999 307.39 183.999Z" fill="#55A8EB" fill-opacity="0.6"/>
<path d="M322.746 237.309C329.938 237.309 335.767 231.479 335.767 224.288C335.767 217.097 329.938 211.267 322.746 211.267C315.555 211.267 309.726 217.097 309.726 224.288C309.726 231.479 315.555 237.309 322.746 237.309Z" fill="#55A8EB" fill-opacity="0.6"/>
<path d="M363.632 196.228C369.671 196.228 374.566 191.332 374.566 185.294C374.566 179.255 369.671 174.36 363.632 174.36C357.594 174.36 352.698 179.255 352.698 185.294C352.698 191.332 357.594 196.228 363.632 196.228Z" fill="#55A8EB" fill-opacity="0.6"/>
</g>
<g clip-path="url(#clip1)">
<path d="M98.7506 28.1584C103.459 30.4123 105.63 35.8934 103.599 40.3973C102.044 43.8454 98.4776 45.7177 94.7802 45.399L92.89 49.4593L92.6132 53.1888C92.5488 54.0412 92.9274 54.8582 93.6005 55.3833C95.4156 56.7986 97.0283 58.3963 98.434 60.1343C98.9097 60.7239 99.6166 61.0768 100.373 61.0856L102.831 61.1191L106.438 59.349C106.735 57.4892 107.898 55.7965 109.718 54.9028C112.805 53.3886 116.562 54.7678 117.904 57.9936C119.061 60.7716 117.931 64.0425 115.307 65.5142C113.637 66.4526 111.734 66.5033 110.11 65.8468L106.114 67.8094L104.704 69.6829C104.22 70.3268 104.06 71.1532 104.251 71.9355C104.89 74.5713 105.172 77.2957 105.08 80.0272C105.049 80.9458 105.507 81.8113 106.272 82.3185L110.206 84.9312L115.967 86.5671C117.814 84.7576 120.554 83.9619 123.22 84.7185C127.248 85.8635 129.555 90.1085 128.292 94.129C127.152 97.7568 123.375 99.9718 119.654 99.1854C116.75 98.5692 114.645 96.3798 113.964 93.7455L108.17 92.0985L103.874 92.2398C102.721 92.2775 101.68 92.9207 101.105 93.9217C101.102 93.9276 101.099 93.9315 101.096 93.9374C100.102 95.6596 98.9577 97.2456 97.696 98.6901C96.9429 99.5491 96.6715 100.728 96.9967 101.824L98.2385 106.005L102.594 112.398C104.37 112.516 106.077 113.42 107.159 115.005C109.096 117.85 108.256 121.769 105.248 123.551C102.67 125.076 99.2942 124.431 97.4611 122.061C96.211 120.444 95.9201 118.421 96.4631 116.635L92.0788 110.201L88.3344 107.273C87.6428 106.735 86.7191 106.584 85.9018 106.9C82.668 108.137 79.2345 108.816 75.7589 108.891C74.8953 108.909 74.1053 109.382 73.6676 110.126L71.2782 114.174L70.1069 119.439C72.6975 121.352 74.0643 124.671 73.3198 128.015C72.3211 132.509 67.8921 135.353 63.4006 134.405C58.911 133.458 55.983 128.989 56.9136 124.495C57.5647 121.349 59.8933 118.993 62.7626 118.146L64.0053 112.557L63.5373 107.681C63.4698 106.958 63.0176 106.332 62.3621 106.021C61.6344 105.677 60.9166 105.302 60.2081 104.893C56.3582 102.671 53.1918 99.714 50.7775 96.3046C50.4226 95.8058 49.8641 95.4912 49.2537 95.4485L46.5705 95.264L42.8709 96.831C42.4711 98.6734 41.2159 100.297 39.3499 101.089C36.1821 102.43 32.5078 100.844 31.3472 97.5495C30.3475 94.7128 31.6569 91.5086 34.3583 90.1841C36.0789 89.3405 37.9798 89.3935 39.5641 90.1402L43.6639 88.4028L46.0079 85.6202C45.2152 82.1523 45.0359 78.5401 45.5144 74.9612L41.5103 71.6784L36.4093 69.9589C34.1381 72.2745 30.7787 73.2795 27.6564 72.2693C23.2456 70.8407 20.9792 65.9343 22.5968 61.3098C24.2132 56.6873 29.0975 54.0959 33.5082 55.5244C36.8093 56.5932 38.9082 59.6079 39.0775 62.9965L43.8891 64.6172L48.5209 64.4492C48.824 64.4379 49.0988 64.2711 49.2499 64.0093L49.2522 64.0054C52.0704 59.1241 56.0671 55.3379 60.6785 52.7962C60.9303 52.6556 61.1003 52.4021 61.1247 52.1143L61.505 47.883L59.539 41.5517C57.8921 40.9132 56.5388 39.5572 55.975 37.7384C54.9564 34.4525 56.9013 30.9565 60.2949 30.1288C63.2719 29.4043 66.3734 31.1005 67.3726 33.9973C68.0196 35.872 67.685 37.8334 66.6556 39.3437L68.6215 45.675L71.2959 48.9065C71.481 49.1314 71.7675 49.2443 72.0574 49.2149C75.0549 48.8959 78.1129 49.0265 81.1249 49.637C81.9529 49.8027 82.8104 49.563 83.416 48.9731L86.1333 46.3167L88.1464 41.9889C85.8183 39.2985 85.0715 35.5056 86.5481 32.23C88.5789 27.726 94.0433 25.9025 98.7506 28.1584V28.1584Z" fill="#55A8EB" fill-opacity="0.6"/>
<path d="M94.3685 90.0533C100.489 79.4525 96.8568 65.8974 86.256 59.777C75.6552 53.6566 62.1 57.2887 55.9797 67.8895C49.8593 78.4903 53.4914 92.0455 64.0922 98.1658C74.693 104.286 88.2481 100.654 94.3685 90.0533Z" fill="#8AC0F5"/>
<path d="M67.4699 92.3154C57.8635 86.7691 53.9798 75.118 57.89 65.0921C57.1934 65.9617 56.5539 66.8949 55.9797 67.8895C49.8592 78.4905 53.4912 92.0453 64.0922 98.1658C74.6932 104.286 88.248 100.654 94.3685 90.0533C94.9427 89.0588 95.4311 88.0383 95.836 87.0002C89.1083 95.3992 77.0762 97.8616 67.4699 92.3154Z" fill="#72B2F0" fill-opacity="0.6"/>
<path d="M21.6328 91.1203C23.3757 88.1014 22.3414 84.2413 19.3226 82.4984C16.3037 80.7555 12.4436 81.7898 10.7007 84.8086C8.95778 87.8274 9.99211 91.6876 13.0109 93.4305C16.0297 95.1734 19.8899 94.1391 21.6328 91.1203Z" fill="#55A8EB" fill-opacity="0.6"/>
<path d="M90.9654 133.142C92.1166 131.148 91.4334 128.598 89.4395 127.447C87.4455 126.296 84.8959 126.979 83.7447 128.973C82.5934 130.967 83.2766 133.516 85.2706 134.668C87.2645 135.819 89.8142 135.136 90.9654 133.142Z" fill="#55A8EB" fill-opacity="0.6"/>
<path d="M136.875 71.2629C138.571 68.3259 137.565 64.5704 134.628 62.8748C131.691 61.1791 127.935 62.1854 126.24 65.1224C124.544 68.0593 125.55 71.8148 128.487 73.5105C131.424 75.2061 135.18 74.1998 136.875 71.2629Z" fill="#55A8EB" fill-opacity="0.6"/>
<path d="M71.4369 84.6694C73.0177 81.9313 72.0796 78.43 69.3415 76.8492C66.6033 75.2683 63.1021 76.2065 61.5212 78.9446C59.9404 81.6827 60.8785 85.184 63.6166 86.7648C66.3548 88.3457 69.856 87.4075 71.4369 84.6694Z" fill="#55A8EB" fill-opacity="0.6"/>
<path d="M87.5508 88.6664C88.6268 86.8026 87.9883 84.4195 86.1245 83.3435C84.2608 82.2675 81.8777 82.906 80.8017 84.7697C79.7256 86.6335 80.3642 89.0166 82.2279 90.0926C84.0916 91.1686 86.4748 90.5301 87.5508 88.6664Z" fill="#55A8EB" fill-opacity="0.6"/>
<path d="M83.0217 71.9231C83.9253 70.3581 83.389 68.3569 81.824 67.4534C80.259 66.5498 78.2579 67.086 77.3543 68.651C76.4507 70.216 76.987 72.2172 78.552 73.1207C80.117 74.0243 82.1181 73.4881 83.0217 71.9231Z" fill="#55A8EB" fill-opacity="0.6"/>
</g>
<g clip-path="url(#clip2)">
<path d="M129.293 307.614C128.028 310.272 124.94 311.503 122.398 310.364C120.452 309.492 119.391 307.484 119.566 305.398L117.274 304.338L115.171 304.187C114.69 304.152 114.23 304.366 113.935 304.746C113.14 305.772 112.241 306.683 111.263 307.478C110.931 307.747 110.733 308.146 110.729 308.572L110.713 309.958L111.716 311.99C112.765 312.155 113.721 312.809 114.227 313.834C115.085 315.572 114.312 317.692 112.495 318.453C110.93 319.109 109.085 318.476 108.251 316.999C107.72 316.058 107.689 314.985 108.057 314.069L106.945 311.818L105.887 311.026C105.523 310.754 105.057 310.665 104.616 310.774C103.131 311.137 101.595 311.3 100.055 311.252C99.5369 311.235 99.0495 311.494 98.7645 311.926L97.2965 314.148L96.3817 317.399C97.4044 318.438 97.8567 319.982 97.4336 321.486C96.7933 323.759 94.4028 325.065 92.1342 324.358C90.0872 323.72 88.8333 321.593 89.2718 319.494C89.6154 317.856 90.8471 316.666 92.3316 316.279L93.2526 313.01L93.1673 310.587C93.1445 309.937 92.7805 309.352 92.2153 309.029C92.212 309.027 92.2098 309.025 92.2064 309.023C91.234 308.465 90.3383 307.822 89.5222 307.113C89.0369 306.689 88.3717 306.538 87.7542 306.722L85.3984 307.428L81.7993 309.892C81.7352 310.894 81.2279 311.857 80.3355 312.47C78.7339 313.565 76.5233 313.097 75.5142 311.403C74.6513 309.952 75.0103 308.048 76.3445 307.011C77.2544 306.304 78.3948 306.137 79.4026 306.441L83.0244 303.961L84.6705 301.845C84.9732 301.455 85.0566 300.934 84.8776 300.473C84.1756 298.652 83.7884 296.716 83.7418 294.757C83.7303 294.27 83.4626 293.825 83.0423 293.579L80.7569 292.237L77.7866 291.584C76.7114 293.047 74.8417 293.822 72.9553 293.407C70.4203 292.85 68.811 290.356 69.3394 287.822C69.8673 285.29 72.3836 283.633 74.9185 284.152C76.6932 284.515 78.0246 285.824 78.506 287.441L81.6589 288.134L84.4075 287.864C84.8156 287.825 85.1679 287.569 85.3419 287.199C85.535 286.789 85.7455 286.383 85.9752 285.983C87.2234 283.81 88.8863 282.02 90.8055 280.655C91.0863 280.454 91.2629 280.139 91.2862 279.794L91.3867 278.281L90.4983 276.197C89.459 275.974 88.5416 275.269 88.093 274.218C87.3326 272.433 88.222 270.359 90.078 269.701C91.6762 269.133 93.4846 269.867 94.2349 271.389C94.7129 272.358 94.6855 273.43 94.2665 274.324L95.2516 276.633L96.8236 277.951C98.7779 277.5 100.814 277.394 102.833 277.659L104.679 275.397L105.642 272.519C104.333 271.241 103.762 269.348 104.327 267.586C105.127 265.097 107.89 263.813 110.5 264.719C113.109 265.624 114.576 268.375 113.777 270.864C113.178 272.727 111.481 273.914 109.571 274.014L108.663 276.729L108.764 279.34C108.771 279.511 108.865 279.666 109.013 279.751L109.015 279.752C111.771 281.335 113.911 283.583 115.351 286.18C115.43 286.322 115.573 286.417 115.736 286.431L118.122 286.64L121.689 285.523C122.047 284.593 122.81 283.829 123.835 283.508C125.686 282.93 127.66 284.022 128.131 285.934C128.543 287.612 127.591 289.363 125.959 289.93C124.903 290.297 123.797 290.111 122.944 289.533L119.376 290.649L117.558 292.162C117.431 292.266 117.368 292.428 117.385 292.591C117.569 294.281 117.499 296.005 117.159 297.705C117.066 298.172 117.203 298.655 117.536 298.996L119.037 300.524L121.48 301.654C122.994 300.337 125.132 299.911 126.981 300.739C129.523 301.879 130.558 304.957 129.293 307.614V307.614Z" fill="#55A8EB" fill-opacity="0.6"/>
<path d="M94.3876 305.225C100.373 308.662 108.011 306.596 111.448 300.611C114.885 294.626 112.819 286.988 106.834 283.551C100.849 280.114 93.2106 282.179 89.7736 288.165C86.3366 294.15 88.4024 301.788 94.3876 305.225Z" fill="#8AC0F5"/>
<path d="M93.0768 290.061C96.1914 284.638 102.756 282.432 108.414 284.624C107.923 284.232 107.396 283.873 106.834 283.551C100.849 280.113 93.2107 282.179 89.7736 288.165C86.3365 294.15 88.4022 301.788 94.3876 305.225C94.9492 305.547 95.5252 305.822 96.111 306.048C91.3664 302.266 89.9622 295.485 93.0768 290.061Z" fill="#72B2F0" fill-opacity="0.6"/>
<path d="M93.6904 264.215C95.3948 265.194 97.5699 264.605 98.5487 262.901C99.5275 261.196 98.9392 259.021 97.2348 258.042C95.5303 257.064 93.3552 257.652 92.3764 259.356C91.3976 261.061 91.9859 263.236 93.6904 264.215Z" fill="#55A8EB" fill-opacity="0.6"/>
<path d="M70.088 303.363C71.2138 304.009 72.6505 303.621 73.297 302.495C73.9435 301.369 73.5549 299.933 72.4291 299.286C71.3033 298.64 69.8666 299.028 69.2201 300.154C68.5737 301.28 68.9622 302.716 70.088 303.363Z" fill="#55A8EB" fill-opacity="0.6"/>
<path d="M105.038 329.168C106.697 330.12 108.813 329.548 109.765 327.889C110.717 326.231 110.145 324.115 108.487 323.163C106.829 322.21 104.712 322.783 103.76 324.441C102.808 326.099 103.38 328.215 105.038 329.168Z" fill="#55A8EB" fill-opacity="0.6"/>
<path d="M97.3931 292.288C98.9391 293.176 100.912 292.642 101.8 291.096C102.688 289.55 102.154 287.577 100.608 286.69C99.062 285.802 97.0891 286.335 96.2014 287.881C95.3136 289.427 95.8472 291.4 97.3931 292.288Z" fill="#55A8EB" fill-opacity="0.6"/>
<path d="M95.1607 301.379C96.2129 301.983 97.5558 301.62 98.1601 300.568C98.7643 299.516 98.4011 298.173 97.3489 297.568C96.2966 296.964 94.9537 297.327 94.3495 298.38C93.7452 299.432 94.1084 300.775 95.1607 301.379Z" fill="#55A8EB" fill-opacity="0.6"/>
<path d="M104.595 298.803C105.479 299.311 106.607 299.006 107.114 298.122C107.621 297.239 107.316 296.111 106.433 295.604C105.549 295.096 104.422 295.401 103.914 296.285C103.407 297.168 103.712 298.296 104.595 298.803Z" fill="#55A8EB" fill-opacity="0.6"/>
</g>
<defs>
<clipPath id="clip0">
<rect x="148.663" width="368" height="368" fill="white"/>
</clipPath>
<clipPath id="clip1">
<rect y="98.2745" width="110.128" height="110.128" transform="rotate(-60 0 98.2745)" fill="white"/>
</clipPath>
<clipPath id="clip2">
<rect x="89.628" y="252.027" width="62.0953" height="62.0953" transform="rotate(29.8663 89.628 252.027)" fill="white"/>
</clipPath>
</defs>
</svg>
