<svg width="327" height="623" viewBox="0 0 327 623" fill="none" xmlns="http://www.w3.org/2000/svg">
<g clip-path="url(#clip0)">
<path d="M622.829 285.469C625.105 314.912 604.392 341.05 576.582 343.84C555.291 345.974 536.031 333.799 527.134 314.783L501.896 317.007L482.841 326.2C478.483 328.296 475.551 332.462 474.883 337.244C473.083 350.14 469.817 362.56 465.279 374.363C463.736 378.361 464.006 382.823 466.102 386.551L472.89 398.688L491.764 411.352C501.716 407.547 513.3 408.46 522.827 414.849C538.975 425.688 542.845 447.995 530.837 463.693C520.5 477.219 501.278 480.935 486.647 472.243C477.326 466.715 471.694 457.535 470.319 447.725L449.4 433.698L436.235 432.091C431.709 431.538 427.209 433.094 423.918 436.244C412.809 446.825 400.261 455.915 386.619 463.192C382.029 465.635 379.085 470.328 378.764 475.509L377.092 502.175L385.372 535.024C399.463 538.959 411.112 550.131 414.943 565.328C420.729 588.304 406.458 611.614 383.186 616.795C362.191 621.475 340.655 609.235 333.982 588.78C328.788 572.811 333.558 556.303 344.538 545.516L336.22 512.473L323.375 491.825C319.93 486.283 313.836 483.005 307.304 483.018C307.266 483.018 307.24 483.018 307.201 483.018C295.951 483.018 284.946 481.899 274.3 479.803C267.962 478.543 261.417 480.549 256.969 485.242L239.997 503.152L220.995 542.571C225.443 551.61 225.842 562.526 221.136 572.31C212.676 589.847 191.102 596.815 173.861 587.121C159.101 578.803 152.711 560.443 159.139 544.757C163.524 534.06 172.614 526.912 182.899 524.52L202.018 484.843L205.772 458.216C206.453 453.305 204.576 448.355 200.719 445.244C185.509 432.901 172.472 417.999 162.277 401.182C159.744 397.004 155.192 394.471 150.307 394.432L123.718 394.175L94.6099 403.33C92.5656 421.432 80.1714 437.516 61.683 443.328C36.8432 451.145 10.3834 437.491 2.322 412.805C-5.73938 388.133 7.87624 361.146 32.5232 352.994C49.7774 347.286 67.9058 352.03 80.1714 363.691L111.067 353.971L133.631 337.887C136.987 335.509 138.774 331.523 138.44 327.434C138.067 322.896 137.874 318.319 137.874 313.69C137.874 288.542 143.402 264.666 153.277 243.195C154.717 240.045 154.678 236.419 153.161 233.308L146.475 219.641L128.334 205.948C118.177 209.201 106.67 207.645 97.5156 200.741C81.9843 189.015 79.3615 166.528 92.2185 151.524C103.288 138.603 122.69 135.954 136.82 145.443C145.82 151.486 150.937 160.948 151.76 170.823L171.868 185.994L192.131 189.607C206.878 175.914 224.068 164.818 242.955 157.04L247.712 128.137L241.707 98.2832C223.939 93.7061 209.513 80.0905 205.631 61.9363C200.153 36.2865 217.78 11.3052 245.012 6.14954C272.23 0.993866 298.741 17.5923 304.218 43.2421C308.32 62.4377 299.487 81.2476 283.364 91.6618L289.034 119.819L302.958 142.036C303.871 143.489 305.466 144.363 307.176 144.363H307.201C339.087 144.363 368.941 153.234 394.436 168.637C395.838 169.473 397.561 169.588 399.039 168.894L420.845 158.788L446.302 131.249C444.772 121.374 447.587 110.909 454.903 103.002C468.12 88.7175 490.749 88.3575 504.403 102.642C516.373 115.177 516.835 135.17 505.47 148.259C498.116 156.731 487.56 160.64 477.249 159.868L451.792 187.408L443.525 209.651C442.946 211.194 443.203 212.917 444.167 214.254C454.209 228.037 462.219 243.388 467.747 259.871C469.277 264.396 472.877 267.919 477.48 269.218L498.18 275.016L525.077 272.638C531.673 253.622 548.142 239.235 568.367 237.204C596.176 234.414 620.566 256.026 622.829 285.469V285.469Z" fill="#55A8EB" fill-opacity="0.6"/>
<path d="M307.201 439.072C376.448 439.072 432.583 382.937 432.583 313.69C432.583 244.444 376.448 188.308 307.201 188.308C237.955 188.308 181.819 244.444 181.819 313.69C181.819 382.937 237.955 439.072 307.201 439.072Z" fill="#8AC0F5"/>
<path d="M220.036 313.69C220.036 250.939 266.131 198.956 326.309 189.755C320.079 188.802 313.698 188.308 307.201 188.308C237.953 188.308 181.819 244.442 181.819 313.69C181.819 382.938 237.953 439.072 307.201 439.072C313.698 439.072 320.079 438.578 326.309 437.626C266.132 428.423 220.036 376.44 220.036 313.69Z" fill="#72B2F0" fill-opacity="0.6"/>
<path d="M96.2389 85.7463C115.958 85.7463 131.944 69.7605 131.944 50.041C131.944 30.3214 115.958 14.3356 96.2389 14.3356C76.5194 14.3356 60.5336 30.3214 60.5336 50.041C60.5336 69.7605 76.5194 85.7463 96.2389 85.7463Z" fill="#55A8EB" fill-opacity="0.6"/>
<path d="M86.4791 544.276C99.504 544.276 110.063 533.717 110.063 520.693C110.063 507.668 99.504 497.109 86.4791 497.109C73.4542 497.109 62.8954 507.668 62.8954 520.693C62.8954 533.717 73.4542 544.276 86.4791 544.276Z" fill="#55A8EB" fill-opacity="0.6"/>
<path d="M268.715 311.498C286.601 311.498 301.101 296.999 301.101 279.112C301.101 261.226 286.601 246.727 268.715 246.727C250.829 246.727 236.329 261.226 236.329 279.112C236.329 296.999 250.829 311.498 268.715 311.498Z" fill="#55A8EB" fill-opacity="0.6"/>
<path d="M294.712 401.748C306.886 401.748 316.755 391.879 316.755 379.705C316.755 367.531 306.886 357.661 294.712 357.661C282.538 357.661 272.669 367.531 272.669 379.705C272.669 391.879 282.538 401.748 294.712 401.748Z" fill="#55A8EB" fill-opacity="0.6"/>
</g>
<defs>
<clipPath id="clip0">
<rect width="623" height="623" fill="white"/>
</clipPath>
</defs>
</svg>
