<svg width="393" height="393" viewBox="0 0 393 393" fill="none" xmlns="http://www.w3.org/2000/svg">
<g opacity="0.4">
<g clip-path="url(#clip0)">
<path d="M170.994 222.675V301.083L219.945 244.132L170.994 222.675Z" fill="#41489D"/>
<path d="M111.811 196.273L7.67577 151.083L385.323 8.34509V316.627L170.994 222.675" fill="#4DBAF6"/>
<path d="M170.994 222.675L343.874 49.7943L111.811 196.273L170.994 301.083V222.675Z" fill="#5A54E0"/>
<path d="M389.688 2.03101C387.615 0.597949 384.97 0.273264 382.61 1.16596L190.504 73.7741C186.538 75.2732 184.539 79.7021 186.038 83.6682C187.536 87.6335 191.969 89.633 195.932 88.1339L377.648 19.4519V304.881L356.156 295.46V212.384C356.156 208.145 352.718 204.708 348.48 204.708C344.241 204.708 340.804 208.145 340.804 212.384V288.731L184.367 220.156L349.302 55.2218C352.067 52.457 352.312 48.0564 349.87 45.0023C347.43 41.9481 343.083 41.2166 339.777 43.3028L111.144 187.617L28.0879 151.573L131.391 112.528C135.358 111.029 137.356 106.6 135.858 102.634C134.359 98.6689 129.927 96.6686 125.964 98.1685L4.96238 143.903C2.03868 145.008 0.0775261 147.774 0.00230363 150.899C-0.0729189 154.023 1.75315 156.88 4.62004 158.125L106.392 202.29L164.311 304.858C165.696 307.31 168.276 308.76 170.994 308.76C171.642 308.76 172.296 308.678 172.946 308.507C174.496 308.099 175.825 307.232 176.815 306.079C176.815 306.082 176.816 306.084 176.816 306.087L222.065 253.443L382.242 323.658C383.229 324.09 384.278 324.303 385.323 324.303C386.793 324.303 388.256 323.881 389.524 323.053C391.693 321.635 393 319.219 393 316.628V8.3451C392.999 5.82438 391.761 3.46408 389.688 2.03101ZM163.318 271.879L122.088 198.864L289.827 92.9858L165.566 217.246C164.127 218.686 163.318 220.638 163.318 222.674V271.879ZM178.67 280.377V234.42L207.361 246.997L178.67 280.377Z" fill="black"/>
<path d="M160.485 100.999C162.504 100.999 164.484 100.186 165.911 98.758C167.339 97.3226 168.161 95.3499 168.161 93.3235C168.161 91.3048 167.339 89.3244 165.911 87.8967C164.484 86.469 162.511 85.6477 160.485 85.6477C158.466 85.6477 156.486 86.469 155.058 87.8967C153.63 89.3244 152.809 91.3048 152.809 93.3235C152.809 95.3499 153.63 97.3226 155.058 98.758C156.486 100.186 158.466 100.999 160.485 100.999Z" fill="black"/>
<path d="M50.0805 244.162C47.6581 244.084 45.2034 244.187 42.8062 244.467C38.5961 244.96 35.5826 248.772 36.0746 252.983C36.5328 256.891 39.8487 259.767 43.6889 259.767C43.9875 259.767 44.2876 259.75 44.5916 259.714C46.2311 259.522 47.9144 259.45 49.5747 259.505C53.8394 259.666 57.3602 256.323 57.4984 252.086C57.6389 247.85 54.3176 244.302 50.0805 244.162Z" fill="black"/>
<path d="M45.6286 363.837C44.1456 362.732 42.6857 361.558 41.2895 360.347C38.0871 357.569 33.2399 357.913 30.4613 361.116C27.6842 364.318 28.0281 369.166 31.2304 371.943C32.9137 373.403 34.6722 374.818 36.4591 376.148C37.8362 377.173 39.4442 377.668 41.0385 377.668C43.3811 377.668 45.6931 376.6 47.1998 374.577C49.7321 371.178 49.0282 366.369 45.6286 363.837Z" fill="black"/>
<path d="M8.0703 314.653C12.3058 314.476 15.5956 310.898 15.4183 306.663C15.3738 305.603 15.3515 304.528 15.3515 303.469V300.845C15.3515 296.605 11.9143 293.169 7.67577 293.169C3.43721 293.169 0 296.605 0 300.845V303.469C0 304.741 0.0268652 306.031 0.079828 307.305C0.252533 311.431 3.65136 314.66 7.74331 314.66C7.85154 314.66 7.96054 314.657 8.0703 314.653Z" fill="black"/>
<path d="M22.2574 260.434C19.0221 257.699 14.1771 258.105 11.4407 261.343C9.87488 263.196 8.43797 265.181 7.1684 267.243C4.94627 270.853 6.07153 275.581 9.68221 277.803C10.9364 278.575 12.325 278.943 13.6974 278.943C16.2742 278.943 18.7918 277.645 20.2418 275.289C21.1099 273.878 22.0932 272.52 23.1655 271.252C25.9026 268.014 25.4958 263.171 22.2574 260.434Z" fill="black"/>
<path d="M21.6441 333.641C19.9432 329.757 15.4168 327.988 11.5344 329.688C7.65044 331.388 5.88117 335.915 7.58212 339.798C8.47558 341.838 9.45424 343.868 10.4928 345.831C11.869 348.435 14.531 349.921 17.2851 349.921C18.4948 349.921 19.7229 349.633 20.8666 349.029C24.6139 347.047 26.0454 342.402 24.0635 338.655C23.2015 337.025 22.3871 335.337 21.6441 333.641Z" fill="black"/>
<path d="M75.8941 377.107C74.0842 376.77 72.2627 376.357 70.4812 375.882C66.39 374.792 62.1798 377.225 61.0868 381.32C59.9938 385.416 62.4285 389.622 66.5251 390.715C68.6828 391.291 70.8895 391.79 73.0833 392.199C73.5584 392.287 74.0305 392.33 74.4979 392.33C78.1224 392.33 81.347 389.751 82.0348 386.058C82.8108 381.89 80.0621 377.883 75.8941 377.107Z" fill="black"/>
<path d="M82.7816 258.339C82.7356 258.293 82.6895 258.248 82.6419 258.204C79.6361 255.329 74.8687 255.37 71.912 258.326C68.9146 261.324 68.9146 266.184 71.912 269.181C71.9319 269.201 71.9534 269.222 71.9741 269.243L76.2541 273.524C77.7532 275.022 79.7174 275.772 81.6817 275.772C83.6459 275.772 85.6101 275.022 87.1092 273.524C90.1066 270.526 90.1066 265.666 87.1092 262.668L82.7816 258.339Z" fill="black"/>
<path d="M138.077 360.022C136.686 361.241 135.234 362.421 133.759 363.529C130.371 366.076 129.689 370.888 132.237 374.276C133.745 376.283 136.048 377.34 138.378 377.34C139.984 377.34 141.603 376.838 142.985 375.799C144.764 374.461 146.518 373.037 148.195 371.566C151.384 368.771 151.702 363.923 148.909 360.734C146.114 357.548 141.265 357.229 138.077 360.022Z" fill="black"/>
<path d="M167.553 329.138C163.647 327.481 159.145 329.306 157.49 333.208C156.77 334.908 155.975 336.601 155.129 338.239C153.184 342.005 154.66 346.635 158.426 348.581C159.553 349.163 160.756 349.439 161.943 349.439C164.722 349.439 167.405 347.923 168.769 345.284C169.792 343.303 170.753 341.255 171.625 339.2C173.278 335.297 171.456 330.793 167.553 329.138Z" fill="black"/>
<path d="M102.307 299.576C103.806 301.075 105.77 301.824 107.734 301.824C109.698 301.824 111.663 301.074 113.162 299.576C116.159 296.579 116.159 291.718 113.161 288.721L108.819 284.379C105.822 281.381 100.961 281.381 97.9635 284.379C94.9661 287.376 94.9661 292.236 97.9643 295.234L102.307 299.576Z" fill="black"/>
<path d="M108.951 375.716C107.17 376.205 105.349 376.63 103.538 376.982C99.3766 377.791 96.6586 381.819 97.4676 385.981C98.1807 389.648 101.393 392.194 104.995 392.194C105.48 392.194 105.972 392.147 106.467 392.051C108.656 391.626 110.856 391.111 113.007 390.521C117.096 389.401 119.502 385.178 118.382 381.09C117.261 377.002 113.036 374.597 108.951 375.716Z" fill="black"/>
<path d="M343.053 178.555C341.625 179.983 340.804 181.963 340.804 183.982C340.804 186.008 341.625 187.981 343.053 189.409C344.481 190.836 346.461 191.658 348.48 191.658C350.499 191.658 352.479 190.836 353.906 189.409C355.334 187.981 356.156 186.001 356.156 183.982C356.156 181.963 355.334 179.983 353.906 178.555C352.479 177.128 350.499 176.306 348.48 176.306C346.461 176.306 344.481 177.128 343.053 178.555Z" fill="black"/>
</g>
</g>
<defs>
<clipPath id="clip0">
<rect width="393" height="393" fill="white"/>
</clipPath>
</defs>
</svg>
