<?xml version="1.0" encoding="iso-8859-1"?>
<!-- Generator: Adobe Illustrator 19.0.0, SVG Export Plug-In . SVG Version: 6.00 Build 0)  -->
<svg version="1.1" id="Capa_1" xmlns="http://www.w3.org/2000/svg" xmlns:xlink="http://www.w3.org/1999/xlink" x="0px" y="0px"
	 viewBox="0 0 512.001 512.001" style="enable-background:new 0 0 512.001 512.001;" xml:space="preserve">
<polygon style="fill:#41489D;" points="222.771,290.101 222.771,392.251 286.545,318.056 "/>
<polyline style="fill:#4DBAF6;" points="145.667,255.705 10,196.831 502,10.872 502,412.502 222.771,290.101 "/>
<polygon style="fill:#5A54E0;" points="222.771,290.101 448,64.872 145.667,255.705 222.771,392.251 "/>
<path d="M507.686,2.646c-2.701-1.867-6.147-2.29-9.221-1.127L248.189,96.113c-5.167,1.953-7.771,7.723-5.819,12.89
	c1.952,5.166,7.728,7.771,12.89,5.818L492,25.342V397.2l-28-12.274V276.694c0-5.523-4.478-10-10-10s-10,4.477-10,10v99.465
	L240.194,286.82L455.071,71.943c3.602-3.602,3.921-9.335,0.74-13.314c-3.179-3.979-8.842-4.932-13.149-2.214L144.798,244.428
	L36.593,197.47l134.584-50.868c5.167-1.953,7.771-7.724,5.819-12.89c-1.953-5.166-7.727-7.772-12.89-5.818L6.465,187.477
	c-3.809,1.439-6.364,5.043-6.462,9.114c-0.098,4.07,2.281,7.793,6.016,9.414l132.589,57.539l75.456,133.625
	c1.805,3.195,5.166,5.084,8.707,5.084c0.844,0,1.697-0.107,2.543-0.33c2.019-0.531,3.751-1.661,5.041-3.163
	c0,0.004,0.001,0.007,0.001,0.01l58.951-68.584l208.679,91.476c1.285,0.563,2.652,0.841,4.014,0.841c1.915,0,3.82-0.55,5.472-1.629
	c2.826-1.847,4.529-4.995,4.529-8.371V10.872C512,7.588,510.387,4.513,507.686,2.646z M212.771,354.205l-53.715-95.125
	l218.531-137.938L215.7,283.029c-1.875,1.875-2.929,4.419-2.929,7.071V354.205z M232.771,365.275v-59.872l37.379,16.385
	L232.771,365.275z"/>
<path d="M209.08,131.582c2.63,0,5.21-1.06,7.069-2.92c1.86-1.87,2.931-4.44,2.931-7.08c0-2.63-1.07-5.21-2.931-7.07
	c-1.859-1.86-4.43-2.93-7.069-2.93c-2.63,0-5.21,1.07-7.07,2.93s-2.93,4.44-2.93,7.07c0,2.64,1.069,5.21,2.93,7.08
	C203.87,130.522,206.45,131.582,209.08,131.582z"/>
<path d="M65.245,318.095c-3.156-0.102-6.354,0.032-9.477,0.397c-5.485,0.642-9.411,5.609-8.77,11.095
	c0.597,5.091,4.917,8.838,9.92,8.838c0.389,0,0.78-0.022,1.176-0.069c2.136-0.25,4.329-0.344,6.492-0.272
	c5.556,0.209,10.143-4.146,10.323-9.666C75.092,322.899,70.765,318.277,65.245,318.095z"/>
<path d="M59.445,474.007c-1.932-1.439-3.834-2.969-5.653-4.547c-4.172-3.618-10.487-3.171-14.107,1.002
	c-3.618,4.172-3.17,10.488,1.002,14.106c2.193,1.902,4.484,3.745,6.812,5.478c1.794,1.336,3.889,1.981,5.966,1.981
	c3.052,0,6.064-1.392,8.027-4.027C64.791,483.571,63.874,477.306,59.445,474.007z"/>
<path d="M10.514,409.93c5.518-0.23,9.804-4.891,9.573-10.409C20.029,398.14,20,396.74,20,395.36v-3.419c0-5.523-4.478-10-10-10
	s-10,4.477-10,10v3.419c0,1.657,0.035,3.338,0.104,4.997c0.225,5.376,4.653,9.583,9.984,9.583
	C10.229,409.939,10.371,409.936,10.514,409.93z"/>
<path d="M28.997,339.294c-4.215-3.563-10.527-3.035-14.092,1.184c-2.04,2.414-3.912,5-5.566,7.686
	c-2.895,4.704-1.429,10.863,3.275,13.758c1.634,1.006,3.443,1.485,5.231,1.485c3.357,0,6.637-1.691,8.526-4.76
	c1.131-1.838,2.412-3.608,3.809-5.26C33.746,349.169,33.216,342.859,28.997,339.294z"/>
<path d="M28.198,434.668c-2.216-5.06-8.113-7.365-13.171-5.15c-5.06,2.215-7.365,8.112-5.149,13.171
	c1.164,2.658,2.439,5.303,3.792,7.86c1.793,3.392,5.261,5.328,8.849,5.328c1.576,0,3.176-0.374,4.666-1.162
	c4.882-2.582,6.747-8.633,4.165-13.515C30.227,439.076,29.166,436.878,28.198,434.668z"/>
<path d="M98.875,491.295c-2.358-0.439-4.731-0.976-7.052-1.595c-5.33-1.421-10.815,1.749-12.239,7.084
	c-1.424,5.336,1.748,10.816,7.085,12.24c2.811,0.75,5.686,1.4,8.544,1.933c0.619,0.115,1.234,0.171,1.843,0.171
	c4.722,0,8.923-3.36,9.819-8.171C107.886,497.527,104.305,492.306,98.875,491.295z"/>
<path d="M107.848,336.565c-0.06-0.06-0.12-0.119-0.182-0.177c-3.916-3.745-10.127-3.691-13.979,0.16
	c-3.905,3.905-3.905,10.237,0,14.142c0.026,0.026,0.054,0.053,0.081,0.08l5.576,5.577c1.953,1.952,4.512,2.929,7.071,2.929
	s5.118-0.977,7.071-2.929c3.905-3.905,3.905-10.237,0-14.143L107.848,336.565z"/>
<path d="M179.887,469.037c-1.812,1.588-3.704,3.125-5.626,4.569c-4.414,3.319-5.302,9.588-1.983,14.002
	c1.965,2.614,4.965,3.991,8.001,3.991c2.092,0,4.201-0.654,6.002-2.007c2.318-1.744,4.603-3.599,6.788-5.515
	c4.154-3.641,4.569-9.958,0.93-14.112C190.357,465.814,184.04,465.398,179.887,469.037z"/>
<path d="M218.288,428.801c-5.089-2.158-10.954,0.219-13.11,5.303c-0.938,2.215-1.974,4.42-3.076,6.554
	c-2.534,4.907-0.611,10.939,4.296,13.474c1.468,0.758,3.035,1.117,4.581,1.117c3.621,0,7.116-1.974,8.893-5.413
	c1.333-2.581,2.585-5.248,3.721-7.926C225.747,436.826,223.373,430.957,218.288,428.801z"/>
<path d="M133.286,390.288c1.952,1.953,4.511,2.929,7.07,2.929s5.119-0.977,7.071-2.929c3.905-3.905,3.905-10.237-0.001-14.142
	l-5.657-5.657c-3.904-3.905-10.237-3.905-14.142,0s-3.905,10.237,0.001,14.142L133.286,390.288z"/>
<path d="M141.941,489.484c-2.32,0.636-4.692,1.19-7.051,1.649c-5.422,1.054-8.963,6.302-7.909,11.724
	c0.929,4.777,5.114,8.094,9.806,8.094c0.632,0,1.274-0.061,1.918-0.186c2.852-0.554,5.719-1.225,8.521-1.993
	c5.327-1.46,8.462-6.961,7.002-12.288C152.768,491.159,147.263,488.026,141.941,489.484z"/>
<path d="M446.93,232.622c-1.86,1.86-2.93,4.44-2.93,7.07c0,2.64,1.069,5.21,2.93,7.07c1.86,1.86,4.44,2.93,7.07,2.93
	s5.21-1.07,7.069-2.93c1.86-1.86,2.931-4.44,2.931-7.07s-1.07-5.21-2.931-7.07c-1.859-1.86-4.439-2.93-7.069-2.93
	S448.79,230.762,446.93,232.622z"/>
<g>
</g>
<g>
</g>
<g>
</g>
<g>
</g>
<g>
</g>
<g>
</g>
<g>
</g>
<g>
</g>
<g>
</g>
<g>
</g>
<g>
</g>
<g>
</g>
<g>
</g>
<g>
</g>
<g>
</g>
</svg>
