<svg width="394" height="672" viewBox="0 0 394 672" fill="none" xmlns="http://www.w3.org/2000/svg">
<g opacity="0.5">
<path d="M235.999 526.848L135.744 581.534C129.861 584.741 124.574 588.685 119.654 592.983C178.105 642.267 253.56 672 336 672C417.832 672 492.804 642.711 551.091 594.099C545.715 589.56 539.882 585.477 533.416 582.256L426.061 528.585C412.19 521.65 403.428 507.474 403.428 491.967V449.847C406.446 446.411 409.895 441.999 413.584 436.787C428.216 416.12 439.285 393.386 446.956 369.537C460.726 365.289 470.869 352.572 470.869 337.458V292.498C470.869 282.608 466.469 273.77 459.635 267.583V202.589C459.635 202.589 472.987 101.447 336.013 101.447C199.039 101.447 212.39 202.589 212.39 202.589V267.583C205.543 273.77 201.156 282.608 201.156 292.498V337.458C201.156 349.301 207.382 359.723 216.701 365.746C227.935 414.649 257.351 449.847 257.351 449.847V490.928C257.338 505.889 249.147 519.672 235.999 526.848Z" fill="#E7ECED"/>
<path d="M341.743 0.0500954C156.208 -3.11972 3.21993 144.72 0.0501209 330.256C-1.75033 435.455 45.1375 530.005 119.793 592.881C124.674 588.621 129.911 584.716 135.731 581.546L235.986 526.86C249.134 519.684 257.325 505.901 257.325 490.914V449.834C257.325 449.834 227.896 414.636 216.675 365.732C207.368 359.71 201.13 349.3 201.13 337.445V292.484C201.13 282.594 205.53 273.757 212.364 267.57V202.576C212.364 202.576 199.013 101.433 335.987 101.433C472.961 101.433 459.609 202.576 459.609 202.576V267.57C466.456 273.757 470.843 282.594 470.843 292.484V337.445C470.843 352.559 460.7 365.276 446.93 369.523C439.259 393.373 428.19 416.107 413.558 436.774C409.869 441.985 406.42 446.398 403.402 449.834V491.954C403.402 507.461 412.164 521.649 426.035 528.572L533.39 582.243C539.831 585.464 545.651 589.534 551.014 594.06C623.413 533.682 670.186 443.405 671.923 341.743C675.118 156.208 527.291 3.21991 341.743 0.0500954Z" fill="#194C80"/>
</g>
</svg>
