<svg width="242" height="414" viewBox="0 0 242 414" fill="none" xmlns="http://www.w3.org/2000/svg">
<g clip-path="url(#clip0)">
<g opacity="0.5">
<path opacity="0.5" d="M144.954 324.576L83.3758 358.266C79.7623 360.242 76.515 362.672 73.4931 365.32C109.394 395.682 155.74 414 206.376 414C256.638 414 302.687 395.956 338.487 366.007C335.185 363.211 331.603 360.696 327.631 358.711L261.692 325.646C253.173 321.374 247.791 312.64 247.791 303.087V277.138C249.645 275.021 251.763 272.303 254.029 269.092C263.016 256.36 269.815 242.354 274.526 227.661C282.984 225.044 289.214 217.21 289.214 207.898V180.2C289.214 174.107 286.511 168.662 282.314 164.85V124.809C282.314 124.809 290.515 62.4986 206.384 62.4986C122.252 62.4986 130.453 124.809 130.453 124.809V164.85C126.247 168.662 123.553 174.107 123.553 180.2V207.898C123.553 215.194 127.377 221.615 133.101 225.326C140.001 255.453 158.068 277.138 158.068 277.138V302.447C158.06 311.664 153.029 320.155 144.954 324.576Z" fill="#E7ECED"/>
<path opacity="0.5" d="M209.903 0.0308859C95.945 -1.92195 1.97775 89.1579 0.0308131 203.461C-1.07505 268.271 27.7241 326.521 73.5785 365.257C76.5764 362.633 79.7931 360.227 83.3678 358.274L144.946 324.583C153.021 320.162 158.052 311.671 158.052 302.438V277.13C158.052 277.13 139.977 255.445 133.085 225.317C127.368 221.607 123.537 215.194 123.537 207.89V180.191C123.537 174.098 126.239 168.654 130.437 164.842V124.801C130.437 124.801 122.236 62.49 206.368 62.49C290.499 62.49 282.298 124.801 282.298 124.801V164.842C286.503 168.654 289.198 174.098 289.198 180.191V207.89C289.198 217.202 282.968 225.036 274.51 227.653C269.799 242.346 263 256.352 254.013 269.084C251.747 272.294 249.629 275.013 247.775 277.13V303.079C247.775 312.632 253.157 321.373 261.676 325.638L327.615 358.703C331.571 360.688 335.146 363.195 338.44 365.983C382.908 328.786 411.637 273.169 412.704 210.538C414.666 96.2353 323.869 1.98372 209.903 0.0308859Z" fill="#194C80"/>
</g>
</g>
<defs>
<clipPath id="clip0">
<rect width="242" height="414" fill="white"/>
</clipPath>
</defs>
</svg>
