<svg width="326" height="52" viewBox="0 0 326 52" fill="none" xmlns="http://www.w3.org/2000/svg">
<path fill-rule="evenodd" clip-rule="evenodd" d="M48.1256 28.6993C50.4468 28.4665 52.1757 26.2848 51.9857 23.8273C51.7968 21.3698 49.7611 19.5658 47.4399 19.7987C45.7519 19.9683 44.3772 21.1691 43.8266 22.7563L41.5816 22.9548L39.8539 22.4708C39.4697 22.3624 39.1692 22.0684 39.0415 21.6906C38.5801 20.3149 37.9115 19.0336 37.0734 17.8831C36.9929 17.7715 36.9714 17.6277 37.0197 17.499L37.7097 15.6424L39.8346 13.3438C40.6952 13.4081 41.5763 13.0819 42.1901 12.3747C43.1388 11.2823 43.1001 9.61352 42.101 8.56721C40.9613 7.37495 39.0726 7.405 37.9694 8.59726C37.3588 9.25724 37.1238 10.1308 37.2515 10.9549L35.1267 13.2536L33.3066 14.0971C33.1832 14.1551 33.0394 14.1454 32.9225 14.0756C30.7944 12.79 28.3026 12.0496 25.6412 12.0496H25.639C25.4963 12.0496 25.3633 11.9766 25.2871 11.8553L24.1248 10.0009L23.6516 7.65075C24.9973 6.7815 25.7346 5.2115 25.3922 3.6093C24.9351 1.46838 22.7223 0.0829601 20.4504 0.51329C18.1775 0.943619 16.7062 3.02873 17.1634 5.16965C17.4875 6.68492 18.6915 7.82138 20.1746 8.20342L20.6758 10.6952L20.2787 13.1077C18.7023 13.7569 17.2675 14.683 16.0366 15.8259L14.3453 15.5244L12.6669 14.2581C12.5982 13.4339 12.1711 12.6441 11.4199 12.1397C10.2406 11.3477 8.62119 11.5688 7.69721 12.6473C6.62407 13.8996 6.84299 15.7766 8.13935 16.7553C8.90342 17.3315 9.86388 17.4614 10.7117 17.1899L12.2259 18.3328L12.7839 19.4735C12.9105 19.7332 12.9137 20.0359 12.7936 20.2988C11.9694 22.0909 11.5079 24.0838 11.5079 26.1828C11.5079 26.5691 11.524 26.9512 11.5552 27.33C11.5831 27.6713 11.4339 28.0039 11.1538 28.2025L9.27044 29.545L6.69168 30.3563C5.6679 29.3829 4.15478 28.9869 2.71462 29.4634C0.657411 30.1438 -0.479045 32.3963 0.193814 34.4557C0.866673 36.5161 3.0752 37.6558 5.1485 37.0033C6.69168 36.5182 7.72619 35.1757 7.89682 33.6647L10.3264 32.9007L12.5457 32.9221C12.9535 32.9254 13.3333 33.1368 13.5448 33.4855C14.3958 34.8892 15.4839 36.133 16.7534 37.1632C17.0754 37.4229 17.2321 37.836 17.1752 38.246L16.8618 40.4685L15.2661 43.7802C14.4076 43.9798 13.6489 44.5764 13.2829 45.4693C12.7463 46.7785 13.2797 48.311 14.5117 49.0053C15.9507 49.8144 17.7515 49.2328 18.4576 47.769C18.8504 46.9524 18.8171 46.0413 18.4458 45.2869L20.0319 41.9966L21.4484 40.5017C21.8197 40.11 22.366 39.9426 22.895 40.0478C23.7836 40.2227 24.7022 40.3161 25.6412 40.3161H25.6498C26.1949 40.315 26.7036 40.5886 26.9912 41.0512L28.0633 42.7746L28.7576 45.5326C27.8411 46.433 27.443 47.8109 27.8765 49.1437C28.4335 50.8511 30.231 51.8727 31.9835 51.4821C33.9258 51.0496 35.117 49.104 34.6341 47.1863C34.3143 45.9179 33.3421 44.9853 32.1659 44.6569L31.4748 41.9151L31.6143 39.6894C31.6411 39.2569 31.8869 38.8652 32.27 38.6613C33.4086 38.0539 34.456 37.2952 35.3832 36.412C35.6579 36.1491 36.0335 36.0192 36.4112 36.0654L37.5101 36.1995L39.2561 37.3703C39.371 38.1891 39.841 38.9553 40.619 39.4168C41.8403 40.1422 43.4446 39.8321 44.3074 38.7031C45.3097 37.3928 44.9867 35.5309 43.6388 34.6263C42.8436 34.0929 41.8767 34.0167 41.0461 34.3344L39.4708 33.2773L38.9041 32.2643C38.7292 31.9531 38.7067 31.5807 38.8355 31.247C39.2143 30.2618 39.4869 29.2252 39.6371 28.1488C39.6929 27.7496 39.9376 27.4019 40.3014 27.227L41.8918 26.4597L43.9983 26.274C44.741 27.8612 46.3485 28.8775 48.1256 28.6993ZM36.1065 26.1828C36.1065 31.9626 31.421 36.6481 25.6412 36.6481C19.8614 36.6481 15.1759 31.9626 15.1759 26.1828C15.1759 20.403 19.8614 15.7175 25.6412 15.7175C31.421 15.7175 36.1065 20.403 36.1065 26.1828Z" fill="white"/>
<path d="M8.03277 7.157C9.6787 7.157 11.013 5.82271 11.013 4.17678C11.013 2.53085 9.6787 1.19656 8.03277 1.19656C6.38684 1.19656 5.05255 2.53085 5.05255 4.17678C5.05255 5.82271 6.38684 7.157 8.03277 7.157Z" fill="white"/>
<path d="M7.21816 45.4292C8.30531 45.4292 9.18662 44.5479 9.18662 43.4607C9.18662 42.3736 8.30531 41.4922 7.21816 41.4922C6.13101 41.4922 5.24969 42.3736 5.24969 43.4607C5.24969 44.5479 6.13101 45.4292 7.21816 45.4292Z" fill="white"/>
<path d="M43.3603 49.5937C44.9616 49.5937 46.2598 48.2956 46.2598 46.6943C46.2598 45.093 44.9616 43.7949 43.3603 43.7949C41.759 43.7949 40.4609 45.093 40.4609 46.6943C40.4609 48.2956 41.759 49.5937 43.3603 49.5937Z" fill="white"/>
<path d="M22.4288 25.9998C23.9217 25.9998 25.132 24.7896 25.132 23.2967C25.132 21.8038 23.9217 20.5936 22.4288 20.5936C20.9359 20.5936 19.7257 21.8038 19.7257 23.2967C19.7257 24.7896 20.9359 25.9998 22.4288 25.9998Z" fill="white"/>
<path d="M24.5988 33.5328C25.6149 33.5328 26.4387 32.709 26.4387 31.6929C26.4387 30.6767 25.6149 29.853 24.5988 29.853C23.5826 29.853 22.7589 30.6767 22.7589 31.6929C22.7589 32.709 23.5826 33.5328 24.5988 33.5328Z" fill="white"/>
<path d="M30.3761 27.7278C31.2294 27.7278 31.9211 27.0361 31.9211 26.1828C31.9211 25.3295 31.2294 24.6378 30.3761 24.6378C29.5228 24.6378 28.8311 25.3295 28.8311 26.1828C28.8311 27.0361 29.5228 27.7278 30.3761 27.7278Z" fill="white"/>
<path d="M87.377 29.4746C87.1777 32.2285 86.1582 34.3965 84.3184 35.9785C82.4902 37.5605 80.0762 38.3516 77.0762 38.3516C73.7949 38.3516 71.2109 37.25 69.3242 35.0469C67.4492 32.832 66.5117 29.7969 66.5117 25.9414V24.377C66.5117 21.916 66.9453 19.748 67.8125 17.873C68.6797 15.998 69.916 14.5625 71.5215 13.5664C73.1387 12.5586 75.0137 12.0547 77.1465 12.0547C80.0996 12.0547 82.4785 12.8457 84.2832 14.4277C86.0879 16.0098 87.1309 18.2305 87.4121 21.0898H82.1387C82.0098 19.4375 81.5469 18.2422 80.75 17.5039C79.9648 16.7539 78.7637 16.3789 77.1465 16.3789C75.3887 16.3789 74.0703 17.0117 73.1914 18.2773C72.3242 19.5312 71.8789 21.4824 71.8555 24.1309V26.0645C71.8555 28.8301 72.2715 30.8516 73.1035 32.1289C73.9473 33.4062 75.2715 34.0449 77.0762 34.0449C78.7051 34.0449 79.918 33.6758 80.7148 32.9375C81.5234 32.1875 81.9863 31.0332 82.1035 29.4746H87.377ZM111.863 25.7832C111.863 28.3027 111.418 30.5117 110.527 32.4102C109.637 34.3086 108.359 35.7734 106.695 36.8047C105.043 37.8359 103.145 38.3516 101 38.3516C98.8789 38.3516 96.9863 37.8418 95.3223 36.8223C93.6582 35.8027 92.3691 34.3496 91.4551 32.4629C90.541 30.5645 90.0781 28.3848 90.0664 25.9238V24.6582C90.0664 22.1387 90.5176 19.9238 91.4199 18.0137C92.334 16.0918 93.6172 14.6211 95.2695 13.6016C96.9336 12.5703 98.832 12.0547 100.965 12.0547C103.098 12.0547 104.99 12.5703 106.643 13.6016C108.307 14.6211 109.59 16.0918 110.492 18.0137C111.406 19.9238 111.863 22.1328 111.863 24.6406V25.7832ZM106.52 24.623C106.52 21.9395 106.039 19.9004 105.078 18.5059C104.117 17.1113 102.746 16.4141 100.965 16.4141C99.1953 16.4141 97.8301 17.1055 96.8691 18.4883C95.9082 19.8594 95.4219 21.875 95.4102 24.5352V25.7832C95.4102 28.3965 95.8906 30.4238 96.8516 31.8652C97.8125 33.3066 99.1953 34.0273 101 34.0273C102.77 34.0273 104.129 33.3359 105.078 31.9531C106.027 30.5586 106.508 28.5312 106.52 25.8711V24.623ZM124.766 31.6543L130.566 12.4062H136.438L127.525 38H122.023L113.146 12.4062H119L124.766 31.6543ZM144.471 38H139.197V12.4062H144.471V38ZM149.375 38V12.4062H157.25C159.5 12.4062 161.51 12.916 163.279 13.9355C165.061 14.9434 166.449 16.3848 167.445 18.2598C168.441 20.123 168.939 22.2441 168.939 24.623V25.8008C168.939 28.1797 168.447 30.2949 167.463 32.1465C166.49 33.998 165.113 35.4336 163.332 36.4531C161.551 37.4727 159.541 37.9883 157.303 38H149.375ZM154.648 16.6777V33.7637H157.197C159.26 33.7637 160.836 33.0898 161.926 31.7422C163.016 30.3945 163.572 28.4668 163.596 25.959V24.6055C163.596 22.0039 163.057 20.0352 161.979 18.6992C160.9 17.3516 159.324 16.6777 157.25 16.6777H154.648ZM182.334 29.0879H172.438V24.9922H182.334V29.0879ZM198.541 38H193.461V18.418L187.396 20.2988V16.168L197.996 12.3711H198.541V38ZM218.756 27.7695C217.432 29.0703 215.885 29.7207 214.115 29.7207C211.854 29.7207 210.043 28.9473 208.684 27.4004C207.324 25.8418 206.645 23.7441 206.645 21.1074C206.645 19.4316 207.008 17.8965 207.734 16.502C208.473 15.0957 209.498 14.0059 210.811 13.2324C212.123 12.4473 213.6 12.0547 215.24 12.0547C216.928 12.0547 218.428 12.4766 219.74 13.3203C221.053 14.1641 222.072 15.377 222.799 16.959C223.525 18.541 223.895 20.3516 223.906 22.3906V24.2715C223.906 28.5371 222.846 31.8887 220.725 34.3262C218.604 36.7637 215.598 38.0645 211.707 38.2285L210.459 38.2461V34.0098L211.584 33.9922C216.002 33.793 218.393 31.7188 218.756 27.7695ZM215.363 25.8359C216.184 25.8359 216.887 25.625 217.473 25.2031C218.07 24.7812 218.521 24.2715 218.826 23.6738V21.582C218.826 19.8594 218.498 18.5234 217.842 17.5742C217.186 16.625 216.307 16.1504 215.205 16.1504C214.186 16.1504 213.348 16.6191 212.691 17.5566C212.035 18.4824 211.707 19.6484 211.707 21.0547C211.707 22.4492 212.023 23.5977 212.656 24.5C213.301 25.3906 214.203 25.8359 215.363 25.8359Z" fill="white"/>
<path d="M247.955 38H247.006L230.482 14.0234V38H229.516V12.4062H230.482L247.006 36.3301V12.4062H247.955V38ZM268.785 25.3086H255.953V37.0508H270.578V38H255.004V12.4062H270.578V13.3555H255.953V24.3594H268.785V25.3086ZM280.58 36.418L281.74 32.1992L287.787 12.4062H288.842L294.854 32.1992L295.996 36.418L297.191 32.1992L302.465 12.4062H303.502L296.611 38H295.539L289.193 16.6602L288.297 13.9531L287.436 16.6602L281.037 38H279.965L273.057 12.4062H274.111L279.42 32.1992L280.58 36.418ZM323.453 31.8652C323.453 30.7754 323.195 29.8555 322.68 29.1055C322.176 28.3438 321.373 27.6758 320.271 27.1016C319.182 26.5156 317.529 25.918 315.314 25.3086C313.1 24.6992 311.436 24.084 310.322 23.4629C309.221 22.8418 308.412 22.1211 307.896 21.3008C307.381 20.4805 307.123 19.4844 307.123 18.3125C307.123 16.4492 307.908 14.9434 309.479 13.7949C311.049 12.6348 313.094 12.0547 315.613 12.0547C317.254 12.0547 318.725 12.377 320.025 13.0215C321.338 13.6543 322.352 14.5508 323.066 15.7109C323.781 16.8594 324.139 18.1602 324.139 19.6133H323.189C323.189 17.7031 322.486 16.127 321.08 14.8848C319.674 13.6309 317.852 13.0039 315.613 13.0039C313.363 13.0039 311.541 13.5078 310.146 14.5156C308.764 15.5117 308.072 16.7656 308.072 18.2773C308.072 19.8125 308.676 21.0488 309.883 21.9863C311.09 22.9238 313.082 23.7559 315.859 24.4824C318.637 25.1973 320.67 26.0293 321.959 26.9785C323.6 28.1855 324.42 29.8027 324.42 31.8301C324.42 33.1191 324.057 34.2617 323.33 35.2578C322.604 36.2422 321.572 37.0039 320.236 37.543C318.9 38.082 317.4 38.3516 315.736 38.3516C313.885 38.3516 312.221 38.0469 310.744 37.4375C309.268 36.8164 308.154 35.9375 307.404 34.8008C306.666 33.6641 306.297 32.3223 306.297 30.7754H307.246C307.246 32.873 308.031 34.502 309.602 35.6621C311.172 36.8223 313.217 37.4023 315.736 37.4023C317.975 37.4023 319.82 36.8926 321.273 35.873C322.727 34.8418 323.453 33.5059 323.453 31.8652Z" fill="white"/>
</svg>
